<?xml version="1.0" standalone="no"?>
<!DOCTYPE svg PUBLIC "-//W3C//DTD SVG 20010904//EN"
 "http://www.w3.org/TR/2001/REC-SVG-20010904/DTD/svg10.dtd">
<svg version="1.0" xmlns="http://www.w3.org/2000/svg"
 width="300.000000pt" height="300.000000pt" viewBox="0 0 300.000000 300.000000"
 preserveAspectRatio="xMidYMid meet">
<metadata>
Created by potrace 1.14, written by Peter Selinger 2001-2017
</metadata>
<g transform="translate(0.000000,300.000000) scale(0.100000,-0.100000)"
fill="#000000" stroke="none">
<path d="M1337 2983 c-3 -2 -22 -6 -43 -9 -22 -2 -64 -9 -94 -15 -30 -6 -59
-12 -65 -13 -89 -17 -394 -150 -446 -194 -8 -7 -43 -34 -79 -60 -126 -91 -198
-165 -338 -347 -26 -34 -107 -177 -117 -205 -1 -3 -11 -25 -22 -50 -19 -43
-61 -158 -69 -190 -21 -87 -28 -116 -39 -190 -21 -143 -13 -385 18 -525 64
-285 214 -550 431 -760 51 -49 118 -108 149 -130 76 -54 222 -137 277 -159 25
-10 59 -23 75 -30 82 -35 197 -63 347 -86 65 -9 339 -6 393 4 17 4 55 11 85
17 30 7 60 12 65 14 166 34 450 179 590 300 55 47 154 147 177 177 13 17 33
41 46 54 12 12 22 25 22 28 0 5 60 96 70 106 3 3 25 46 50 95 25 50 47 92 50
95 3 3 6 10 7 15 1 6 18 55 37 110 19 55 37 118 40 139 4 21 8 48 11 60 14 61
17 94 20 231 4 155 -9 286 -40 395 -9 30 -18 62 -20 71 -16 72 -71 198 -138
319 -93 168 -290 376 -465 491 -62 41 -116 74 -120 74 -4 1 -23 9 -42 20 -19
11 -37 20 -40 20 -3 1 -23 9 -45 19 -168 74 -343 109 -562 111 -95 2 -174 1
-176 -2z"/>
</g>
</svg>
